# File created by Blade
# Date/Time:  Wed Jan 21 16:27:40 2015
# Frame Rate: 120.000 fps
#------------------------------------------------------
:FULLY-SPECIFIED
:DEGREES
326
root 12.384569 33.025428 -22.045876 -163.854874 64.818360 -176.722392
Spine 22.793135 -10.239449 8.235017
Head 13.472267 -13.804575 5.389166
LeftShoulder 2.576789 -26.222081 -6.495537
LeftArm 2.433810 24.416218 -79.138504
LeftForeArm -0.766211 0.000000 10.053045
LeftHand 0.129043 0.000000 5.506008
LeftHandThumb1 -26.253704 0.000000 33.147579
RightShoulder -0.135049 -12.905925 5.097827
RightArm 19.489525 -7.229883 62.865234
RightForeArm -20.114437 0.000000 24.825276
RightHand -1.219766 -0.000000 0.892250
RightHandThumb1 -24.326973 -0.000000 -32.862282
LeftUpLeg 11.130730 19.278263 4.197679
LeftLeg 11.332520 -0.000000 -0.000000
LeftFoot -29.870951 25.100423 -22.774054
LeftToeBase 11.284694 -0.000000 -0.000000
RightUpLeg -49.765252 -20.016390 17.606224
RightLeg 30.702965 -0.000000 -0.000000
RightFoot -15.808630 -25.616436 8.912661
RightToeBase 23.283562 -0.000000 -0.000000
327
root 12.203638 32.935499 -22.062537 -164.874352 64.472584 -177.403017
Spine 22.654800 -10.277798 7.850016
Head 13.528932 -14.132089 5.633351
LeftShoulder 2.557974 -26.050569 -6.432887
LeftArm 2.386289 24.483701 -78.983416
LeftForeArm -0.654850 0.000000 10.028262
LeftHand 0.144278 -0.000000 5.297193
LeftHandThumb1 -26.253704 0.000000 33.147579
RightShoulder -0.447466 -13.257100 5.198061
RightArm 19.022162 -7.181758 63.110747
RightForeArm -20.082956 -0.000000 25.445475
RightHand -1.382701 0.000000 0.888300
RightHandThumb1 -24.326973 -0.000000 -32.862282
LeftUpLeg 11.295084 18.868683 3.972539
LeftLeg 11.484146 -0.000000 -0.000000
LeftFoot -31.162253 24.564317 -22.967670
LeftToeBase 11.544237 -0.000000 -0.000000
RightUpLeg -50.283448 -20.513194 17.344373
RightLeg 31.586067 -0.000000 -0.000000
RightFoot -15.682717 -25.811262 8.815365
RightToeBase 22.877779 -0.000000 -0.000000
328
root 12.028006 32.847591 -22.077466 -165.904356 64.102949 -178.035012
Spine 22.570220 -10.335577 7.461476
Head 13.606200 -14.434432 5.844870
LeftShoulder 2.491123 -25.880634 -6.384298
LeftArm 2.358371 25.102978 -78.729774
LeftForeArm -1.192625 0.000000 9.983479
LeftHand 0.267067 -0.000000 5.270522
LeftHandThumb1 -26.253704 0.000000 33.147579
RightShoulder -0.674739 -13.345086 5.229368
RightArm 18.197113 -6.966133 63.608781
RightForeArm -20.421353 -0.000000 26.095372
RightHand -1.507235 -0.000000 0.899965
RightHandThumb1 -24.326973 -0.000000 -32.862282
LeftUpLeg 11.425583 18.589603 3.817554
LeftLeg 11.811118 -0.000000 -0.000000
LeftFoot -32.442984 23.982914 -23.156059
LeftToeBase 11.876487 -0.000000 -0.000000
RightUpLeg -50.757468 -21.005408 17.070538
RightLeg 32.492985 -0.000000 -0.000000
RightFoot -15.484591 -26.117419 8.727001
RightToeBase 22.357973 -0.000000 -0.000000
329
root 11.852892 32.764688 -22.094292 -167.037749 63.677535 -178.728075
Spine 22.545643 -10.440105 7.015292
Head 13.702476 -14.774078 6.081980
LeftShoulder 2.444418 -25.816692 -6.293116
LeftArm 2.226579 25.240055 -78.603722
LeftForeArm -1.242810 -0.000000 9.924272
LeftHand 0.228547 -0.000000 5.076094
LeftHandThumb1 -26.253704 0.000000 33.147579
RightShoulder -0.924838 -13.548312 5.256578
RightArm 17.571639 -6.637488 64.159192
RightForeArm -20.545500 0.000000 26.496557
RightHand -1.336341 0.000000 0.937779
RightHandThumb1 -24.326973 -0.000000 -32.862282
LeftUpLeg 11.584554 18.162438 3.610804
LeftLeg 12.129571 -0.000000 -0.000000
LeftFoot -33.672096 23.581967 -23.329594
LeftToeBase 12.189771 -0.000000 -0.000000
RightUpLeg -51.214523 -21.529267 16.713137
RightLeg 33.471190 -0.000000 -0.000000
RightFoot -15.207857 -26.411359 8.739790
RightToeBase 21.684906 -0.000000 -0.000000
330
root 11.677560 32.686122 -22.111039 -168.298656 63.231615 -179.556942
Spine 22.520857 -10.500599 6.489515
Head 13.828043 -15.138711 6.337567
LeftShoulder 2.406968 -25.677410 -6.250881
LeftArm 2.190911 25.442896 -78.391547
LeftForeArm -1.485590 -0.000000 9.854121
LeftHand 0.193146 -0.000000 5.167982
LeftHandThumb1 -26.253704 0.000000 33.147579
RightShoulder -1.254536 -13.754531 5.354455
RightArm 16.917948 -6.332735 64.662258
RightForeArm -20.874713 0.000000 26.969323
RightHand -1.298035 -0.000000 1.160839
RightHandThumb1 -24.326973 -0.000000 -32.862282
LeftUpLeg 11.722736 17.760384 3.322624
LeftLeg 12.468768 -0.000000 -0.000000
LeftFoot -34.843717 23.207605 -23.447998
LeftToeBase 12.573209 -0.000000 -0.000000
RightUpLeg -51.760300 -22.106839 16.317620
RightLeg 34.584457 -0.000000 -0.000000
RightFoot -14.751547 -26.746787 8.767961
RightToeBase 20.494088 -0.000000 -0.000000
331
root 11.508572 32.612879 -22.137638 -169.633810 62.769398 -180.378504
Spine 22.590317 -10.568521 5.956095
Head 13.935481 -15.517047 6.566594
LeftShoulder 2.389968 -25.487521 -6.238303
LeftArm 2.168081 25.677608 -78.136917
LeftForeArm -1.588313 -0.000000 9.882830
LeftHand 0.152426 0.000000 5.191205
LeftHandThumb1 -26.253704 0.000000 33.147579
RightShoulder -1.592943 -13.955683 5.446995
RightArm 16.191797 -6.373284 65.008776
RightForeArm -20.703163 0.000000 27.554995
RightHand -1.359058 0.000000 1.144139
RightHandThumb1 -24.326973 -0.000000 -32.862282
LeftUpLeg 11.969616 17.425159 3.050197
LeftLeg 12.782669 -0.000000 -0.000000
LeftFoot -35.930209 22.860482 -23.487692
LeftToeBase 13.025229 -0.000000 -0.000000
RightUpLeg -52.309124 -22.817341 15.945035
RightLeg 35.802517 -0.000000 -0.000000
RightFoot -14.093836 -27.101571 8.553674
RightToeBase 20.034280 -0.000000 -0.000000
332
root 11.341653 32.542637 -22.155560 -170.937959 62.456998 -181.188085
Spine 22.666805 -10.407082 5.328518
Head 14.083216 -16.036127 6.884755
LeftShoulder 2.398358 -25.563838 -6.123071
LeftArm 1.895895 25.374596 -78.094645
LeftForeArm -1.258601 -0.000000 9.722633
LeftHand 0.059779 -0.000000 4.874889
LeftHandThumb1 -26.253704 0.000000 33.147579
RightShoulder -2.013382 -14.189171 5.616478
RightArm 15.571182 -6.262890 65.440940
RightForeArm -20.723129 -0.000000 27.929064
RightHand -1.320896 0.000000 1.105392
RightHandThumb1 -24.326973 -0.000000 -32.862282
LeftUpLeg 12.202793 17.312063 2.772623
LeftLeg 13.116102 -0.000000 -0.000000
LeftFoot -36.977718 22.521070 -23.604336
LeftToeBase 13.405590 -0.000000 -0.000000
RightUpLeg -52.933750 -23.346312 15.543045
RightLeg 37.122556 -0.000000 -0.000000
RightFoot -13.099269 -27.470872 8.228597
RightToeBase 18.776426 -0.000000 -0.000000
333
root 11.172713 32.478697 -22.189166 -172.378318 61.955162 -182.118421
Spine 22.737789 -10.451389 4.709675
Head 14.318248 -16.524887 7.099826
LeftShoulder 2.388987 -25.451644 -6.059306
LeftArm 1.789661 25.323290 -77.947904
LeftForeArm -1.137005 -0.000000 9.663851
LeftHand 0.000120 -0.000000 4.743962
LeftHandThumb1 -26.253704 0.000000 33.147579
RightShoulder -2.410169 -14.501659 5.682206
RightArm 15.060376 -5.998472 65.943321
RightForeArm -20.960867 -0.000000 28.112657
RightHand -1.107085 -0.000000 1.319940
RightHandThumb1 -24.326973 -0.000000 -32.862282
LeftUpLeg 12.451216 16.892172 2.360548
LeftLeg 13.386392 -0.000000 -0.000000
LeftFoot -37.984946 22.376247 -23.608081
LeftToeBase 13.933744 -0.000000 -0.000000
RightUpLeg -53.779868 -24.286959 15.230710
RightLeg 38.693479 -0.000000 -0.000000
RightFoot -11.857699 -27.630890 8.065540
RightToeBase 16.648203 -0.000000 -0.000000
334
root 11.006943 32.423032 -22.228562 -173.864017 61.508365 -183.035174
Spine 22.907271 -10.451169 4.053519
Head 14.527467 -16.979899 7.294686
LeftShoulder 2.336560 -25.454923 -5.982446
LeftArm 1.598586 25.416820 -77.835845
LeftForeArm -1.257539 -0.000000 9.548164
LeftHand -0.074919 -0.000000 4.740007
LeftHandThumb1 -26.253704 0.000000 33.147579
RightShoulder -2.806226 -14.846199 5.809324
RightArm 14.544452 -5.929935 66.295667
RightForeArm -20.998420 -0.000000 28.407963
RightHand -0.967342 -0.000000 1.445627
RightHandThumb1 -24.326973 -0.000000 -32.862282
LeftUpLeg 12.753944 16.763456 2.009358
LeftLeg 13.711756 -0.000000 -0.000000
LeftFoot -38.880952 22.078071 -23.691978
LeftToeBase 14.324739 -0.000000 -0.000000
RightUpLeg -54.608188 -25.227237 14.898950
RightLeg 40.265759 -0.000000 -0.000000
RightFoot -10.297596 -27.835467 7.904284
RightToeBase 13.380288 -0.000000 -0.000000
335
root 10.840194 32.372076 -22.270043 -175.197376 60.982916 -183.859279
Spine 22.984947 -10.546604 3.464268
Head 14.803221 -17.421239 7.441315
LeftShoulder 2.210918 -25.285677 -5.890757
LeftArm 1.562410 25.420472 -77.688565
LeftForeArm -1.331300 -0.000000 9.466172
LeftHand -0.160397 -0.000000 4.717013
LeftHandThumb1 -26.253704 0.000000 33.147579
RightShoulder -3.190654 -15.117561 5.936107
RightArm 13.880819 -5.950327 66.620514
RightForeArm -21.022378 0.000000 28.832207
RightHand -1.045278 -0.000000 1.470495
RightHandThumb1 -24.326973 -0.000000 -32.862282
LeftUpLeg 12.994039 16.543538 1.640496
LeftLeg 13.991999 -0.000000 -0.000000
LeftFoot -39.768715 21.876842 -23.752136
LeftToeBase 14.721011 -0.000000 -0.000000
RightUpLeg -55.575943 -26.234743 14.645328
RightLeg 41.854464 -0.000000 -0.000000
RightFoot -8.408118 -28.022249 7.534757
RightToeBase 10.415066 -0.000000 -0.000000
